<mxfile host="app.diagrams.net" modified="2024-06-26T10:51:49.405Z" agent="Mozilla/5.0 (Windows NT 10.0; Win64; x64) AppleWebKit/537.36 (KHTML, like Gecko) Chrome/126.0.0.0 Safari/537.36" version="24.6.3" etag="4iwWnvyne7WiL8IRCd2m" type="github">
  <diagram name="Page-1" id="M5a1gCqoo48ptMaLP6wA">
    <mxGraphModel>
      <root>
        <mxCell id="0" />
        <mxCell id="1" parent="0" />
      </root>
    </mxGraphModel>
  </diagram>
</mxfile>
